<svg xmlns="http://www.w3.org/2000/svg" xmlns:xlink="http://www.w3.org/1999/xlink" width="500" height="500" viewBox="0 0 500 500">
  <defs>
    <clipPath id="clip-custom_1">
      <rect width="500" height="500"/>
    </clipPath>
  </defs>
  <g id="custom_1" data-name="custom – 1" clip-path="url(#clip-custom_1)">
    <rect width="500" height="500" fill="rgba(255,255,255,0)"/>
    <g id="Group_1" data-name="Group 1" transform="translate(2181.107 -1133.38)">
      <path id="Path_3" data-name="Path 3" d="M250.078,0C388.149-.043,500.043,111.852,500,249.923S387.993,499.957,249.922,500-.043,388.148,0,250.077,112.007.043,250.078,0Z" transform="translate(-2181.107 1133.38)" fill="#333" stroke="#707070" stroke-width="1"/>
      <path id="Path_1" data-name="Path 1" d="M211.67,661.294a45.484,45.484,0,0,1,4.573-20.205,51.112,51.112,0,0,1,12.426-16.242,61,61,0,0,1,40.061-14.792,56.488,56.488,0,0,1,16.1,2.127V441.645l-120.88-28.23V600.194a69.407,69.407,0,0,1-3.877,23.2,61.71,61.71,0,0,1-10.835,19.335,52.4,52.4,0,0,1-16.7,13.245,46.862,46.862,0,0,1-21.472,4.93q-19.683,0-30.22-10.054T70.313,623.4a45.485,45.485,0,0,1,4.573-20.205A51.112,51.112,0,0,1,87.311,586.95a61,61,0,0,1,40.061-14.792,56.488,56.488,0,0,1,16.1,2.127V378.8l161.836,37.9v221.39a69.408,69.408,0,0,1-3.877,23.2A61.709,61.709,0,0,1,290.6,680.629a52.406,52.406,0,0,1-16.7,13.245,46.864,46.864,0,0,1-21.472,4.93q-19.683,0-30.22-10.055T211.67,661.294Z" transform="translate(-2135.006 836.822)" fill="#fc0" stroke="#707070" stroke-width="1"/>
      <path id="Path_2" data-name="Path 2" d="M211.67,661.294a45.485,45.485,0,0,1,4.573-20.206,51.114,51.114,0,0,1,12.426-16.242,61,61,0,0,1,40.061-14.792,56.488,56.488,0,0,1,16.1,2.127V441.645l-120.88-28.23V600.194a69.407,69.407,0,0,1-3.877,23.2,61.709,61.709,0,0,1-10.835,19.335,52.4,52.4,0,0,1-16.7,13.245,46.861,46.861,0,0,1-21.472,4.93q-19.683,0-30.22-10.054T70.312,623.4a45.485,45.485,0,0,1,4.573-20.205A51.112,51.112,0,0,1,87.311,586.95a61,61,0,0,1,40.061-14.792,56.488,56.488,0,0,1,16.1,2.127V378.8l161.836,37.9v221.39a69.408,69.408,0,0,1-3.877,23.2A61.709,61.709,0,0,1,290.6,680.63a52.4,52.4,0,0,1-16.7,13.245,46.862,46.862,0,0,1-21.472,4.93q-19.683,0-30.22-10.054T211.67,661.294Z" transform="translate(-2120.372 851.924)" fill="#f33" stroke="#707070" stroke-width="1"/>
    </g>
  </g>
</svg>
