<svg xmlns="http://www.w3.org/2000/svg" xmlns:xlink="http://www.w3.org/1999/xlink" width="317.397" height="129" viewBox="0 0 317.397 129">
  <defs>
    <clipPath id="clip-path">
      <rect id="Rectangle_591" data-name="Rectangle 591" width="129" height="129" transform="translate(-0.23 0.277)"/>
    </clipPath>
  </defs>
  <g id="Group_18" data-name="Group 18" transform="translate(-33 -43)">
    <g id="custom_1" data-name="custom – 1" transform="translate(33.23 42.723)" clip-path="url(#clip-path)">
      <rect id="Rectangle_590" data-name="Rectangle 590" width="129" height="129" transform="translate(-0.23 0.277)" fill="rgba(255,255,255,0)"/>
      <g id="Group_1" data-name="Group 1" transform="translate(0 0.164)">
        <path id="Path_3" data-name="Path 3" d="M64.462,0A64.441,64.441,0,1,1,0,64.461,64.393,64.393,0,0,1,64.462,0Z" transform="translate(0 0)" fill="#333" stroke="#707070" stroke-width="1"/>
        <path id="Path_1" data-name="Path 1" d="M106.749,451.617a11.725,11.725,0,0,1,1.179-5.208,13.175,13.175,0,0,1,3.2-4.187,15.724,15.724,0,0,1,10.326-3.813,14.56,14.56,0,0,1,4.15.548V395l-31.159-7.277v48.145a17.891,17.891,0,0,1-1,5.98,15.907,15.907,0,0,1-2.793,4.984,13.507,13.507,0,0,1-4.3,3.414,12.079,12.079,0,0,1-5.535,1.271q-5.074,0-7.79-2.592a9.313,9.313,0,0,1-2.715-7.076,11.725,11.725,0,0,1,1.179-5.208,13.175,13.175,0,0,1,3.2-4.187,15.724,15.724,0,0,1,10.326-3.813,14.561,14.561,0,0,1,4.15.548V378.8l41.716,9.769v57.067a17.891,17.891,0,0,1-1,5.98,15.906,15.906,0,0,1-2.792,4.985,13.509,13.509,0,0,1-4.3,3.414,12.081,12.081,0,0,1-5.535,1.271q-5.074,0-7.79-2.592A9.319,9.319,0,0,1,106.749,451.617Z" transform="translate(-40.305 -357.601)" fill="#fc0" stroke="#707070" stroke-width="1"/>
        <path id="Path_2" data-name="Path 2" d="M106.748,451.617a11.725,11.725,0,0,1,1.179-5.208,13.175,13.175,0,0,1,3.2-4.187,15.724,15.724,0,0,1,10.326-3.813,14.561,14.561,0,0,1,4.15.548V395l-31.159-7.277v48.145a17.891,17.891,0,0,1-1,5.98,15.907,15.907,0,0,1-2.793,4.984,13.506,13.506,0,0,1-4.3,3.414,12.079,12.079,0,0,1-5.535,1.271q-5.074,0-7.79-2.592a9.314,9.314,0,0,1-2.715-7.076,11.725,11.725,0,0,1,1.179-5.208,13.175,13.175,0,0,1,3.2-4.187,15.724,15.724,0,0,1,10.326-3.813,14.561,14.561,0,0,1,4.15.548V378.8l41.716,9.769v57.067a17.891,17.891,0,0,1-1,5.98,15.907,15.907,0,0,1-2.792,4.985,13.506,13.506,0,0,1-4.3,3.414,12.079,12.079,0,0,1-5.535,1.271q-5.074,0-7.79-2.592A9.319,9.319,0,0,1,106.748,451.617Z" transform="translate(-36.532 -353.708)" fill="#f33" stroke="#707070" stroke-width="1"/>
      </g>
    </g>
    <path id="Path_66" data-name="Path 66" d="M-35.813-17.205l7.524-15.5H-22L-32.961-12.039V0h-5.705V-12.039L-49.649-32.7h6.312ZM-2.134,0a8.423,8.423,0,0,1-.629-2.269A8.5,8.5,0,0,1-9.142.449,8.574,8.574,0,0,1-15.116-1.64,6.683,6.683,0,0,1-17.43-6.806a6.9,6.9,0,0,1,2.886-5.963q2.886-2.078,8.254-2.078h3.347v-1.595A4.257,4.257,0,0,0-4-19.462,4.185,4.185,0,0,0-7.21-20.6a4.808,4.808,0,0,0-3.055.932,2.885,2.885,0,0,0-1.19,2.37h-5.458a6.058,6.058,0,0,1,1.325-3.74,8.829,8.829,0,0,1,3.6-2.729A12.663,12.663,0,0,1-6.9-24.752,10.2,10.2,0,0,1-.09-22.607a7.649,7.649,0,0,1,2.605,6.031V-5.615A12.422,12.422,0,0,0,3.437-.382V0Zm-6-3.931a6.209,6.209,0,0,0,3.043-.786A5.252,5.252,0,0,0-2.942-6.828V-11.41H-5.885a8.046,8.046,0,0,0-4.56,1.056,3.42,3.42,0,0,0-1.527,2.987,3.19,3.19,0,0,0,1.044,2.5A4.044,4.044,0,0,0-8.131-3.931ZM20.226-32.7,29.659-7.637,39.07-32.7h7.345V0h-5.66V-10.781l.562-14.42L31.658,0H27.593L17.957-25.179l.562,14.4V0h-5.66V-32.7Z" transform="translate(262 93)" fill="#fff"/>
    <path id="Path_67" data-name="Path 67" d="M-84.362-4.359H-85.8L-86.551,0h-1.055l1.652-9.51H-84.9l-.738,4.219H-84.3l4.122-4.219h1.389l-4.641,4.667L-80.109,0h-1.274ZM-71.017,0a3.642,3.642,0,0,1-.026-.668l.079-.659A4.935,4.935,0,0,1-72.471-.211,4.032,4.032,0,0,1-74.3.176a2.722,2.722,0,0,1-1.956-.76,2.276,2.276,0,0,1-.672-1.868,2.805,2.805,0,0,1,.646-1.63,3.71,3.71,0,0,1,1.639-1.072,7,7,0,0,1,2.382-.382l1.942.009.158-1.09a1.927,1.927,0,0,0-.422-1.564,2.082,2.082,0,0,0-1.556-.624,3,3,0,0,0-1.806.514,2.253,2.253,0,0,0-.962,1.4h-1.028a2.926,2.926,0,0,1,1.283-2.035,4.314,4.314,0,0,1,2.619-.769,3.05,3.05,0,0,1,2.263.888,2.661,2.661,0,0,1,.646,2.215l-.791,4.781-.07.765a3.62,3.62,0,0,0,.07.94L-69.935,0Zm-3.111-.738a3.452,3.452,0,0,0,1.85-.462,4.108,4.108,0,0,0,1.463-1.414l.36-2.105-1.679-.009a5.293,5.293,0,0,0-2.61.568,2.026,2.026,0,0,0-1.116,1.625,1.52,1.52,0,0,0,.409,1.277A1.815,1.815,0,0,0-74.128-.738ZM-62.206-.7a2.764,2.764,0,0,0,1.833-.576,2.915,2.915,0,0,0,1.059-1.648h.993A3.625,3.625,0,0,1-59.705-.646a3.9,3.9,0,0,1-2.553.831,3.185,3.185,0,0,1-1.934-.633,3.37,3.37,0,0,1-1.129-1.679,6.02,6.02,0,0,1-.224-2.417l.035-.378a6.946,6.946,0,0,1,.453-1.793,5.408,5.408,0,0,1,.927-1.542,4.282,4.282,0,0,1,1.384-1.063,3.86,3.86,0,0,1,1.815-.365,3.086,3.086,0,0,1,2.32.984A3.261,3.261,0,0,1-57.8-6.293L-58.8-6.3a2.542,2.542,0,0,0-.571-1.775,2.125,2.125,0,0,0-1.608-.712,2.839,2.839,0,0,0-1.925.633,4.03,4.03,0,0,0-1.257,1.89,7.443,7.443,0,0,0-.4,2.593A3.526,3.526,0,0,0-63.92-1.5,2.161,2.161,0,0,0-62.206-.7Zm15.139-7.91h-3.349L-51.918,0h-1.046l1.494-8.613H-54.7l.158-.9H-46.9Zm1.78,3.771a6.254,6.254,0,0,1,.844-2.527,4.838,4.838,0,0,1,1.709-1.745,4.139,4.139,0,0,1,2.219-.571,3.318,3.318,0,0,1,2.008.646,3.576,3.576,0,0,1,1.213,1.714,5.6,5.6,0,0,1,.259,2.4l-.018.167a5.992,5.992,0,0,1-1.6,3.612A4.162,4.162,0,0,1-41.842.176,3.233,3.233,0,0,1-44.4-1a4.531,4.531,0,0,1-.94-3.041l.026-.5Zm1.02.3a4.8,4.8,0,0,0,.154,1.929,2.849,2.849,0,0,0,.857,1.384A2.3,2.3,0,0,0-41.789-.7a3.057,3.057,0,0,0,1.736-.483,3.868,3.868,0,0,0,1.3-1.415A5.664,5.664,0,0,0-38.1-4.623l.026-.29a4.329,4.329,0,0,0-.523-2.773,2.255,2.255,0,0,0-1.973-1.1A3.038,3.038,0,0,0-43-7.7a5.3,5.3,0,0,0-1.252,3ZM-28.724-1.45l5.054-8.06h1.318L-24.013,0h-1.046l1.345-7.69L-28.549,0H-29.3l-2.232-7.989L-32.917,0h-1.046l1.652-9.51h1.336ZM-12.5,0h-1.055l.765-4.359h-4.948L-18.5,0h-1.046l1.652-9.51h1.046l-.747,4.263h4.948L-11.9-9.51h1.046Zm6.587-6.056,2.452.018a3.364,3.364,0,0,1,2.145.677,2.477,2.477,0,0,1,.9,2.25A3.1,3.1,0,0,1-1.593-.853,4.128,4.128,0,0,1-4.274,0H-8l1.652-9.51h1.037Zm-.149.9L-6.814-.888-4.23-.87a3.016,3.016,0,0,0,1.89-.62A2.307,2.307,0,0,0-1.47-3.1,1.7,1.7,0,0,0-1.9-4.566,2.083,2.083,0,0,0-3.377-5.15ZM2.186,0H1.132L2.793-9.51H3.839ZM14.372-9.51h1.081L13.8,0H12.746L14.1-7.726,7.833,0H6.761L8.413-9.51H9.45L8.106-1.775Zm.554-3.437a2.467,2.467,0,0,1-.861,1.688,2.58,2.58,0,0,1-1.8.58,2.313,2.313,0,0,1-1.661-.637,2.036,2.036,0,0,1-.571-1.63l.888.009a1.45,1.45,0,0,0,.3,1.088,1.38,1.38,0,0,0,1.059.415,1.724,1.724,0,0,0,1.2-.393,1.876,1.876,0,0,0,.589-1.1ZM27.432-4.359H26L25.244,0H24.189l1.652-9.51H26.9l-.738,4.219h1.336L31.616-9.51H33L28.364-4.843,31.686,0H30.412Zm16.2-5.15L41.982,0H40.928l1.5-8.6H38.678l-.756,3.547-.2,1.054a6.815,6.815,0,0,1-1.23,3.064A2.548,2.548,0,0,1,34.371,0H33.94l.114-.923L34.4-.932a1.9,1.9,0,0,0,1.512-.848,6.382,6.382,0,0,0,.879-2.606l.158-.923.879-4.2Zm10.428,0h1.081L53.492,0H52.437L53.79-7.726,47.524,0H46.451L48.1-9.51h1.037L47.8-1.775ZM61.652.176a3.315,3.315,0,0,1-1.978-.637,3.57,3.57,0,0,1-1.226-1.687,5.232,5.232,0,0,1-.277-2.307l.026-.3a6.351,6.351,0,0,1,.782-2.509,4.843,4.843,0,0,1,1.67-1.819,3.851,3.851,0,0,1,2.162-.6,2.951,2.951,0,0,1,1.8.58,3.172,3.172,0,0,1,1.068,1.564,5.263,5.263,0,0,1,.211,2.215l-.07.642H59.235l-.026.211a4.175,4.175,0,0,0,.141,1.833,2.855,2.855,0,0,0,.892,1.389,2.335,2.335,0,0,0,1.49.532,3.037,3.037,0,0,0,1.521-.325,4.856,4.856,0,0,0,1.248-.94l.615.5A4.267,4.267,0,0,1,63.59-.233,4.233,4.233,0,0,1,61.652.176Zm1.107-8.965a2.745,2.745,0,0,0-2.048.809,5.263,5.263,0,0,0-1.362,2.4l5.52.009L64.9-5.7a3.066,3.066,0,0,0-.439-2.149A2,2,0,0,0,62.759-8.789ZM75.7,0H74.646l.765-4.359H70.463L69.707,0H68.661l1.652-9.51h1.046l-.747,4.263H75.56l.747-4.263h1.046ZM88.23-8.613H84.881L83.378,0H82.332l1.494-8.613H80.592l.158-.9H88.4ZM-57.376,16.164-52.384,9.2h1.3L-57,17.236-57.824,22H-58.9l.853-4.878L-61.12,9.2h1.2ZM-44.795,22a3.642,3.642,0,0,1-.026-.668l.079-.659a4.935,4.935,0,0,1-1.507,1.116,4.032,4.032,0,0,1-1.833.387,2.722,2.722,0,0,1-1.956-.76,2.276,2.276,0,0,1-.672-1.868,2.805,2.805,0,0,1,.646-1.63,3.71,3.71,0,0,1,1.639-1.072,7,7,0,0,1,2.382-.382l1.942.009.158-1.09a1.927,1.927,0,0,0-.422-1.564,2.082,2.082,0,0,0-1.556-.624,3,3,0,0,0-1.806.514,2.253,2.253,0,0,0-.962,1.4h-1.028a2.926,2.926,0,0,1,1.283-2.035,4.314,4.314,0,0,1,2.619-.769,3.05,3.05,0,0,1,2.263.888,2.661,2.661,0,0,1,.646,2.215l-.791,4.781-.07.765a3.62,3.62,0,0,0,.07.94l-.018.105Zm-3.111-.738a3.452,3.452,0,0,0,1.85-.462,4.108,4.108,0,0,0,1.463-1.414l.36-2.105-1.679-.009a5.293,5.293,0,0,0-2.61.568,2.026,2.026,0,0,0-1.116,1.625,1.52,1.52,0,0,0,.409,1.277A1.815,1.815,0,0,0-47.906,21.262Zm10.894-8.771-.316,1.626a4.608,4.608,0,0,1,1.463-1.349,3.422,3.422,0,0,1,1.78-.453,2.312,2.312,0,0,1,2,.958,3.707,3.707,0,0,1,.439,2.54L-32.688,22h-1.037l1.037-6.2a5.357,5.357,0,0,0,.018-.966,1.585,1.585,0,0,0-1.705-1.607,2.826,2.826,0,0,0-1.723.549A4.793,4.793,0,0,0-37.5,15.485L-38.629,22h-1.037l1.652-9.51Zm9.048,4.729a7.828,7.828,0,0,1,.817-2.65,4.419,4.419,0,0,1,1.507-1.718,3.508,3.508,0,0,1,2-.536,3.345,3.345,0,0,1,1.538.391A2.674,2.674,0,0,1-21,13.835l.967-5.335H-19L-21.346,22h-.976l.237-1.266a3.694,3.694,0,0,1-3.076,1.441,2.548,2.548,0,0,1-2.079-1.033,4.522,4.522,0,0,1-.787-2.685,6.93,6.93,0,0,1,.044-1.055Zm1.055.176a8.647,8.647,0,0,0-.053,1.254,3.219,3.219,0,0,0,.558,1.89,1.85,1.85,0,0,0,1.49.724,2.951,2.951,0,0,0,1.714-.447,4.146,4.146,0,0,0,1.248-1.263l.765-4.473a2.692,2.692,0,0,0-.839-1.337,2.362,2.362,0,0,0-1.49-.513,2.666,2.666,0,0,0-2.228,1.022,5.71,5.71,0,0,0-1.147,2.96Zm13.689,4.782a3.315,3.315,0,0,1-1.978-.637,3.57,3.57,0,0,1-1.226-1.687,5.232,5.232,0,0,1-.277-2.307l.026-.3a6.351,6.351,0,0,1,.782-2.509,4.843,4.843,0,0,1,1.67-1.819,3.851,3.851,0,0,1,2.162-.6,2.951,2.951,0,0,1,1.8.58A3.172,3.172,0,0,1-9.2,14.459a5.263,5.263,0,0,1,.211,2.215l-.07.642h-6.583l-.026.211a4.175,4.175,0,0,0,.141,1.833,2.855,2.855,0,0,0,.892,1.389,2.335,2.335,0,0,0,1.49.532,3.037,3.037,0,0,0,1.521-.325,4.856,4.856,0,0,0,1.248-.94l.615.5a4.267,4.267,0,0,1-1.525,1.252A4.233,4.233,0,0,1-13.221,22.176Zm1.107-8.965a2.745,2.745,0,0,0-2.048.809,5.263,5.263,0,0,0-1.362,2.4l5.52.009.026-.132a3.066,3.066,0,0,0-.439-2.149A2,2,0,0,0-12.113,13.211Zm9.681,3.12L.653,12.49h1.3l-3.9,4.72L.538,22H-.622l-1.986-4.008L-5.86,22H-7.143l4.061-4.9L-5.464,12.49H-4.3Zm6.35,5.036a.8.8,0,0,1,.25-.523A.775.775,0,0,1,4.7,20.62a.647.647,0,0,1,.519.211.674.674,0,0,1,.176.536.7.7,0,0,1-.242.505.814.814,0,0,1-.532.207.676.676,0,0,1-.514-.193A.641.641,0,0,1,3.918,21.367ZM13.607,9.2l2.61,11.268L22.757,9.2h1.45L21.983,22H20.911l.976-5.616,1.046-5.537L16.42,22h-.826L12.939,10.759l-.905,5.678L11.067,22H10L12.219,9.2ZM32.868,20.8a3.646,3.646,0,0,1-3.129,1.371,2.339,2.339,0,0,1-2-.971,3.779,3.779,0,0,1-.475-2.624l1.02-6.091h1.037l-1.011,6.117a4.59,4.59,0,0,0-.009.94,1.955,1.955,0,0,0,.483,1.248,1.617,1.617,0,0,0,1.16.466,3.463,3.463,0,0,0,1.951-.488,2.44,2.44,0,0,0,1.16-1.393l1.178-6.891h1.055L33.633,22h-1.02ZM43.85,19.521q.141-1.213-1.477-1.758l-1.512-.448q-2.083-.7-1.969-2.347a2.444,2.444,0,0,1,1.094-1.929,4.007,4.007,0,0,1,2.457-.725,3.365,3.365,0,0,1,2.268.787,2.435,2.435,0,0,1,.809,2.052H44.483a1.649,1.649,0,0,0-.532-1.389,2.27,2.27,0,0,0-1.551-.554,2.913,2.913,0,0,0-1.687.47,1.689,1.689,0,0,0-.773,1.244q-.132,1.134,1.389,1.591l1.1.316.589.2q1.986.747,1.872,2.435a2.508,2.508,0,0,1-.989,1.876,4.091,4.091,0,0,1-2.369.822l-.36.009a4.286,4.286,0,0,1-1.731-.374,2.721,2.721,0,0,1-1.187-1,2.378,2.378,0,0,1-.36-1.477l1.046.009a1.764,1.764,0,0,0,.606,1.415,2.556,2.556,0,0,0,1.67.536,3.224,3.224,0,0,0,1.793-.479A1.757,1.757,0,0,0,43.85,19.521ZM49.541,22H48.486l1.661-9.51h1.046Zm.9-12.261q.044-.571.756-.721a.871.871,0,0,1,.488.215.892.892,0,0,1,.189.505.994.994,0,0,1-.255.488,1.049,1.049,0,0,1-.5.224Q50.4,10.346,50.437,9.739ZM57.657,21.3a2.764,2.764,0,0,0,1.833-.576,2.915,2.915,0,0,0,1.059-1.648h.993a3.625,3.625,0,0,1-1.384,2.281,3.9,3.9,0,0,1-2.553.831,3.185,3.185,0,0,1-1.934-.633,3.37,3.37,0,0,1-1.129-1.679,6.02,6.02,0,0,1-.224-2.417l.035-.378a6.946,6.946,0,0,1,.453-1.793,5.408,5.408,0,0,1,.927-1.542,4.282,4.282,0,0,1,1.384-1.063,3.86,3.86,0,0,1,1.815-.365,3.086,3.086,0,0,1,2.32.984,3.261,3.261,0,0,1,.809,2.408l-.993-.009a2.542,2.542,0,0,0-.571-1.775,2.125,2.125,0,0,0-1.608-.712,2.839,2.839,0,0,0-1.925.633,4.03,4.03,0,0,0-1.257,1.89,7.443,7.443,0,0,0-.4,2.593,3.526,3.526,0,0,0,.633,2.175A2.161,2.161,0,0,0,57.657,21.3Z" transform="translate(262 127)" fill="#fff"/>
  </g>
</svg>
