<svg xmlns="http://www.w3.org/2000/svg" xmlns:xlink="http://www.w3.org/1999/xlink" width="316" height="375.464" viewBox="0 0 316 375.464">
  <defs>
    <clipPath id="clip-path">
      <rect id="Rectangle_591" data-name="Rectangle 591" width="316" height="316" transform="translate(0 0.277)"/>
    </clipPath>
  </defs>
  <g id="Group_188" data-name="Group 188" transform="translate(-36 -146)">
    <g id="custom_1" data-name="custom – 1" transform="translate(36 145.723)" clip-path="url(#clip-path)">
      <rect id="Rectangle_590" data-name="Rectangle 590" width="316" height="316" transform="translate(0 0.277)" fill="rgba(255,255,255,0)"/>
      <g id="Group_1" data-name="Group 1">
        <path id="Path_3" data-name="Path 3" d="M158.188,0A158.138,158.138,0,1,1,0,158.187,158.02,158.02,0,0,1,158.188,0Z" transform="translate(0 0)" fill="#333" stroke="#707070" stroke-width="1"/>
        <path id="Path_1" data-name="Path 1" d="M159.728,557.493a28.772,28.772,0,0,1,2.893-12.781,32.332,32.332,0,0,1,7.86-10.274,38.586,38.586,0,0,1,25.341-9.357,35.731,35.731,0,0,1,10.184,1.346V418.553L129.543,400.7V518.844a43.9,43.9,0,0,1-2.452,14.675,39.035,39.035,0,0,1-6.854,12.23,33.146,33.146,0,0,1-10.564,8.378,29.643,29.643,0,0,1-13.582,3.118q-12.451,0-19.116-6.36t-6.663-17.364a28.772,28.772,0,0,1,2.893-12.781,32.331,32.331,0,0,1,7.859-10.276,38.585,38.585,0,0,1,25.341-9.357,35.733,35.733,0,0,1,10.184,1.346V378.8l102.37,23.974V542.815a43.9,43.9,0,0,1-2.452,14.675,39.034,39.034,0,0,1-6.851,12.233,33.15,33.15,0,0,1-10.564,8.378,29.645,29.645,0,0,1-13.582,3.119q-12.451,0-19.116-6.36T159.728,557.493Z" transform="translate(3.325 -326.777)" fill="#fc0" stroke="#707070" stroke-width="1"/>
        <path id="Path_2" data-name="Path 2" d="M159.728,557.493a28.772,28.772,0,0,1,2.893-12.781,32.332,32.332,0,0,1,7.86-10.274,38.586,38.586,0,0,1,25.341-9.357,35.733,35.733,0,0,1,10.184,1.345V418.553L129.543,400.7V518.844a43.9,43.9,0,0,1-2.452,14.675,39.035,39.035,0,0,1-6.854,12.23,33.145,33.145,0,0,1-10.564,8.378,29.642,29.642,0,0,1-13.582,3.118q-12.451,0-19.116-6.36t-6.663-17.364A28.772,28.772,0,0,1,73.2,520.742a32.331,32.331,0,0,1,7.86-10.276,38.586,38.586,0,0,1,25.341-9.357,35.733,35.733,0,0,1,10.184,1.346V378.8l102.37,23.974V542.815a43.9,43.9,0,0,1-2.452,14.675,39.035,39.035,0,0,1-6.851,12.234,33.145,33.145,0,0,1-10.564,8.378,29.643,29.643,0,0,1-13.582,3.118q-12.451,0-19.116-6.36T159.728,557.493Z" transform="translate(12.583 -317.225)" fill="#f33" stroke="#707070" stroke-width="1"/>
      </g>
    </g>
    <path id="Path_68" data-name="Path 68" d="M-29.639-12.28V-.635a.6.6,0,0,1-.1.342.649.649,0,0,1-.34.232,3.66,3.66,0,0,1-.655.146,6.928,6.928,0,0,1-1,.061A6.879,6.879,0,0,1-32.734.085a4.019,4.019,0,0,1-.655-.146.654.654,0,0,1-.352-.232.6.6,0,0,1-.1-.342V-12.28L-42.773-30.1a3.967,3.967,0,0,1-.33-.879.5.5,0,0,1,.122-.488,1.151,1.151,0,0,1,.659-.22q.476-.049,1.282-.049a11.482,11.482,0,0,1,1.184.049,3.813,3.813,0,0,1,.72.134.85.85,0,0,1,.4.244,2.027,2.027,0,0,1,.256.4l4.37,9.082q.608,1.294,1.215,2.71t1.238,2.856h.048q.558-1.392,1.153-2.771t1.2-2.722l4.395-9.131a1.241,1.241,0,0,1,.208-.415.808.808,0,0,1,.366-.256,2.947,2.947,0,0,1,.647-.134,9.271,9.271,0,0,1,1.05-.049,12.051,12.051,0,0,1,1.379.061,1.326,1.326,0,0,1,.7.232.482.482,0,0,1,.134.488,3.591,3.591,0,0,1-.33.854ZM-2.515-.586a.514.514,0,0,1-.2.439,1.37,1.37,0,0,1-.537.22,5.122,5.122,0,0,1-1,.073A5.563,5.563,0,0,1-5.261.073a1.2,1.2,0,0,1-.549-.22.547.547,0,0,1-.171-.439v-2.2A10.848,10.848,0,0,1-9.192-.391a8.512,8.512,0,0,1-3.748.854A10.212,10.212,0,0,1-16.077.012a6.788,6.788,0,0,1-2.393-1.306,5.859,5.859,0,0,1-1.538-2.1,6.95,6.95,0,0,1-.549-2.832A6.551,6.551,0,0,1-19.8-9.448a6.294,6.294,0,0,1,2.173-2.271,10.676,10.676,0,0,1,3.467-1.355,21.527,21.527,0,0,1,4.614-.452h3.027v-1.709a8.5,8.5,0,0,0-.269-2.246A3.848,3.848,0,0,0-7.654-19.1a3.724,3.724,0,0,0-1.55-.977,7.227,7.227,0,0,0-2.344-.33,9.327,9.327,0,0,0-2.673.354,14.29,14.29,0,0,0-2.075.781q-.891.427-1.489.781a2.056,2.056,0,0,1-.891.354.6.6,0,0,1-.342-.1.833.833,0,0,1-.256-.293,1.51,1.51,0,0,1-.159-.5,4.264,4.264,0,0,1-.049-.671,4.292,4.292,0,0,1,.085-.964,1.4,1.4,0,0,1,.415-.671,5.313,5.313,0,0,1,1.135-.745,12.482,12.482,0,0,1,1.855-.781A16.839,16.839,0,0,1-13.7-23.45a13.7,13.7,0,0,1,2.515-.232,13.192,13.192,0,0,1,4.028.537A6.517,6.517,0,0,1-4.468-21.57a6.1,6.1,0,0,1,1.489,2.576,12.472,12.472,0,0,1,.464,3.589Zm-4-10.034H-9.961a12.983,12.983,0,0,0-2.881.281,5.934,5.934,0,0,0-2.026.83,3.433,3.433,0,0,0-1.184,1.318,3.96,3.96,0,0,0-.378,1.77A3.543,3.543,0,0,0-15.344-3.7,4.286,4.286,0,0,0-12.3-2.686a5.654,5.654,0,0,0,2.942-.806A12.677,12.677,0,0,0-6.519-5.957ZM39.7-.635a.589.589,0,0,1-.1.342.672.672,0,0,1-.352.232A3.934,3.934,0,0,1,38.6.085a6.835,6.835,0,0,1-1.018.061,6.942,6.942,0,0,1-.993-.061,3.558,3.558,0,0,1-.654-.146.668.668,0,0,1-.34-.232.589.589,0,0,1-.1-.342V-28.149h-.049L24.316-.513a.836.836,0,0,1-.208.293,1.092,1.092,0,0,1-.391.208,2.885,2.885,0,0,1-.61.122,8.332,8.332,0,0,1-.842.037A6.773,6.773,0,0,1,21.387.1a3.133,3.133,0,0,1-.61-.134A1.1,1.1,0,0,1,20.4-.244a.636.636,0,0,1-.183-.269L9.57-28.149H9.546V-.635a.589.589,0,0,1-.1.342.672.672,0,0,1-.352.232,3.918,3.918,0,0,1-.654.146A7.1,7.1,0,0,1,7.409.146,6.886,6.886,0,0,1,6.4.085a3.554,3.554,0,0,1-.641-.146.6.6,0,0,1-.327-.232.651.651,0,0,1-.088-.342V-29.687a1.777,1.777,0,0,1,.545-1.465,1.889,1.889,0,0,1,1.215-.439H9.685a5.849,5.849,0,0,1,1.388.146,3.022,3.022,0,0,1,1.041.464,2.7,2.7,0,0,1,.744.806,5.741,5.741,0,0,1,.521,1.147L22.412-6.152h.122l9.4-22.8a6.807,6.807,0,0,1,.6-1.245,3.214,3.214,0,0,1,.707-.818,2.439,2.439,0,0,1,.856-.439,4,4,0,0,1,1.091-.134h2.7a2.253,2.253,0,0,1,.707.11,1.44,1.44,0,0,1,.57.342,1.773,1.773,0,0,1,.385.586,2.238,2.238,0,0,1,.149.867Z" transform="translate(194 521)" fill="#fff"/>
  </g>
</svg>
